<?xml version="1.0" encoding="utf-8"?>
<!-- Generator: Adobe Illustrator 27.9.2, SVG Export Plug-In . SVG Version: 6.00 Build 0)  -->
<svg version="1.1" id="Capa_1" xmlns="http://www.w3.org/2000/svg" xmlns:xlink="http://www.w3.org/1999/xlink" x="0px" y="0px"
	 viewBox="0 0 1024 1024" style="enable-background:new 0 0 1024 1024;" xml:space="preserve">
<style type="text/css">
	.st0{fill:#3AAD62;}
	.st1{fill:#FFFFFF;}
	.st2{fill:none;stroke:#FFFFFF;stroke-width:80;stroke-miterlimit:10;}
</style>
<circle class="st0" cx="512" cy="512" r="506.9"/>
<g>
	<g>
		<path class="st1" d="M671.8,403.2l-55.1,223.5h-71.4l-21.3-97.3c-0.4-1.9-1-5-1.9-9.4c-0.8-4.4-1.8-9.4-3-15
			c-1.1-5.6-2.1-11.2-3-16.6c-0.8-5.4-1.5-10-1.9-13.8c-0.4,3.8-1.1,8.3-2,13.8c-0.9,5.4-1.9,11-3,16.6c-1,5.6-2,10.6-3,15
			c-0.9,4.4-1.6,7.5-2,9.4l-21.6,97.3h-71.4L356,403.2h58.2l24.4,112.1c0.6,2.7,1.5,6.6,2.5,11.7c1,5.1,2.1,10.6,3.3,16.4
			c1.1,5.8,2.2,11.5,3.3,17.1c1,5.5,1.8,10.2,2.2,13.9c0.8-6.3,1.9-13.5,3.3-21.6c1.4-8.1,2.9-16.3,4.5-24.6
			c1.7-8.2,3.3-15.9,4.9-23c1.6-7.1,2.9-12.9,3.9-17.5l19.7-84.5h56l19.1,84.5c1,4.4,2.3,10.2,3.9,17.4c1.6,7.2,3.2,15,4.9,23.3
			c1.7,8.3,3.2,16.6,4.7,24.7c1.5,8.1,2.5,15.2,3.1,21.3c0.6-5.2,1.7-11.7,3.1-19.4c1.5-7.7,2.9-15.3,4.4-22.7
			c1.5-7.4,2.6-13,3.4-16.7l24.7-112.4H671.8z"/>
	</g>
</g>
<g>
	<path class="st2" d="M816.4,512c-5.6,36.7-12.7,76.4-22.9,116.6c-13.1,38.9-30.5,78.6-51.3,113.6c-34.9,20.8-74.7,38.2-113.6,51.3
		c-40.2,10.2-79.9,17.3-116.6,22.9c-36.7-5.6-76.4-12.7-116.6-22.9c-38.9-13.1-78.6-30.5-113.6-51.3
		c-20.8-34.9-38.2-74.7-51.3-113.6c-10.2-40.2-17.3-79.9-22.9-116.6c5.6-36.7,12.7-76.4,22.9-116.6c13.1-38.9,30.5-78.6,51.3-113.6
		c34.9-20.8,74.7-38.2,113.6-51.3c40.2-10.2,79.9-17.3,116.6-22.9c36.7,5.6,76.4,12.7,116.6,22.9c38.9,13.1,78.6,30.5,113.6,51.3
		c20.8,34.9,38.2,74.7,51.3,113.6C803.7,435.6,810.8,475.3,816.4,512z"/>
</g>
<polyline class="st1" points="196.6,825.3 259,674.5 343.3,767.1 "/>
</svg>
