<?xml version="1.0" encoding="utf-8"?>
<!-- Generator: Adobe Illustrator 27.9.2, SVG Export Plug-In . SVG Version: 6.00 Build 0)  -->
<svg version="1.1" id="Capa_1" xmlns="http://www.w3.org/2000/svg" xmlns:xlink="http://www.w3.org/1999/xlink" x="0px" y="0px"
	 viewBox="0 0 1024 1024" style="enable-background:new 0 0 1024 1024;" xml:space="preserve">
<style type="text/css">
	.st0{fill:#3BAE63;}
	.st1{fill:none;stroke:#3BAE63;stroke-width:80;stroke-miterlimit:10;}
</style>
<g>
	<g>
		<path class="st0" d="M720.9,369.2l-71.1,288.3h-92.1l-27.5-125.6c-0.5-2.4-1.3-6.5-2.4-12.1c-1.1-5.7-2.4-12.1-3.8-19.4
			c-1.5-7.3-2.8-14.4-3.8-21.4c-1.1-7-1.9-12.9-2.4-17.8c-0.5,4.8-1.4,10.8-2.6,17.8c-1.2,7-2.5,14.1-3.8,21.4
			c-1.4,7.3-2.6,13.7-3.8,19.4c-1.2,5.7-2.1,9.7-2.6,12.1L477,657.5H385l-71.5-288.3h75.1l31.5,144.5c0.8,3.5,1.9,8.5,3.2,15.1
			c1.3,6.6,2.8,13.7,4.2,21.2c1.5,7.5,2.9,14.9,4.2,22c1.3,7.1,2.3,13.1,2.8,18c1.1-8.1,2.5-17.4,4.2-27.9
			c1.7-10.5,3.7-21.1,5.9-31.7c2.2-10.6,4.2-20.5,6.3-29.7c2-9.1,3.7-16.7,5-22.6l25.4-109h72.3l24.6,109c1.3,5.7,3,13.1,5,22.4
			s4.1,19.3,6.3,30.1c2.2,10.8,4.2,21.4,6.1,31.9c1.9,10.5,3.2,19.7,4,27.5c0.8-6.7,2.2-15.1,4-25c1.9-10,3.8-19.7,5.7-29.3
			c1.9-9.6,3.4-16.8,4.4-21.6l31.9-145H720.9z"/>
	</g>
</g>
<g>
	<path class="st1" d="M905.1,509.5c-6.5,47.7-14.7,98.8-26.6,150.7c-17.4,49.4-40.7,100.1-68.6,144.5
		c-44.4,27.9-95.1,51.2-144.5,68.6c-51.8,11.9-103,20-150.7,26.6c-47.7-6.5-98.8-14.7-150.7-26.6c-49.4-17.4-100.1-40.7-144.5-68.6
		c-27.9-44.4-51.2-95.1-68.6-144.5c-11.9-51.8-20-103-26.6-150.7c6.5-47.7,14.7-98.8,26.6-150.7c17.4-49.4,40.7-100.1,68.6-144.5
		c44.4-27.9,95.1-51.2,144.5-68.6c51.8-11.9,103-20,150.7-26.6c47.7,6.5,98.8,14.7,150.7,26.6c49.4,17.4,100.1,40.7,144.5,68.6
		c27.9,44.4,51.2,95.1,68.6,144.5C890.4,410.7,898.6,461.9,905.1,509.5z"/>
</g>
<polyline class="st0" points="107.9,913.7 188.4,719.2 297.1,838.6 "/>
</svg>
